<!--
  @package     [FS] Table Pro element for YOOtheme Pro
  @subpackage  fs-table

  @author      Flart Studio https://flart.studio
  @copyright   Copyright (C) 2026 Flart Studio. All rights reserved.
  @license     Flart Studio Proprietary License — see https://flart.studio/license
  @link        https://flart.studio/yootheme-pro/table-pro
  @build       (FLART_BUILD_NUMBER)

  Use of this file is subject to license terms. Redistribution is strictly prohibited.
-->
<svg width="20" height="20" viewBox="0 0 20 20" xmlns="http://www.w3.org/2000/svg">
    <path fill="#444"
          d="M18,3H2v13h16V3z M7,15H3v-3h4V15z M7,11H3V8h4V11z M7,7H3V4h4V7z M12,15H7.96v-3H12V15z M12,11H7.96V8H12 V11z M12,7H7.96V4H12V7z M17,15h-4.04v-3H17V15z M17,11h-4.04V8H17V11z M17,7h-4.04V4H17V7z"/>
</svg>