<!--
  @package     [FS] Table Pro element for YOOtheme Pro
  @subpackage  fs-table

  @author      Flart Studio https://flart.studio
  @copyright   Copyright (C) 2026 Flart Studio. All rights reserved.
  @license     Flart Studio Proprietary License — see https://flart.studio/license
  @link        https://flart.studio/yootheme-pro/table-pro
  @build       (FLART_BUILD_NUMBER)

  Use of this file is subject to license terms. Redistribution is strictly prohibited.
-->
<svg width="30" height="30" viewBox="0 0 30 30" xmlns="http://www.w3.org/2000/svg">
    <path fill="#444"
          d="M30,4H1v23h29V4z M10,25H3v-5h7V25z M10,18H3v-5h7V18z M10,11H3V6h7V11z M19,25h-7.04v-5H19V25z M19,18 h-7.04v-5H19V18z M19,11h-7.04V6H19V11z M28,25h-7.04v-5H28V25z M28,18h-7.04v-5H28V18z M28,11h-7.04V6H28V11z"/>
</svg>