<svg xmlns="http://www.w3.org/2000/svg" xml:space="preserve" fill-rule="evenodd" stroke-linejoin="round" stroke-miterlimit="2" clip-rule="evenodd" viewBox="0 0 962 1021">
  <g fill="#444" fill-rule="nonzero">
    <path d="M723.417 482.333c7.458-.875 14.583-.916 21.125 0 3.791-8.708 4.458-23.708 1.041-40.041-5.083-24.292-11.958-39-26.125-36.709-14.208 2.292-14.708 19.875-9.625 44.167 2.834 13.667 7.917 25.333 13.584 32.583ZM601.542 501.542c10.166 4.458 16.416 7.416 18.833 4.833 1.583-1.625 1.083-4.667-1.333-8.625-5-8.167-15.334-16.5-26.25-21.125-22.375-9.625-49.042-6.417-69.625 8.375-6.792 4.958-13.25 11.875-12.334 16.042.292 1.375 1.334 2.375 3.709 2.708 5.583.625 25.166-9.25 47.708-10.625 15.958-1 29.125 3.958 39.292 8.417ZM581.125 513.208c-13.208 2.084-20.542 6.459-25.208 10.5-4 3.5-6.459 7.375-6.459 10.084 0 1.291.584 2.041 1 2.416a3.13 3.13 0 0 0 2.167.834c3 0 9.667-2.667 9.667-2.667 18.416-6.583 30.541-5.792 42.583-4.417 6.667.75 9.792 1.167 11.25-1.125.417-.666.958-2.083-.375-4.208-3.042-5.083-16.417-13.583-34.625-11.417ZM682.25 556c9 4.417 18.875 2.667 22.083-3.875 3.209-6.542-1.458-15.417-10.416-19.833-9-4.417-18.875-2.667-22.084 3.875-3.25 6.541 1.459 15.416 10.417 19.833ZM740 505.542c-7.292-.125-13.333 7.875-13.5 17.875-.167 10 5.625 18.208 12.917 18.333 7.291.125 13.333-7.875 13.5-17.875.166-10-5.625-18.208-12.917-18.333ZM249.917 685.958c-1.834-2.291-4.792-1.583-7.667-.916-2 .458-4.292 1-6.792.958-5.375-.083-9.916-2.417-12.458-6.333-3.333-5.084-3.125-12.709.542-21.417.5-1.167 1.083-2.458 1.708-3.917 5.833-13.125 15.667-35.083 4.667-56.041-8.292-15.75-21.792-25.584-38-27.625-15.584-1.959-31.625 3.791-41.834 15.083-16.125 17.792-18.666 42.042-15.541 50.583 1.125 3.125 2.916 4 4.25 4.167 2.75.375 6.791-1.625 9.333-8.458.167-.5.417-1.25.708-2.209 1.125-3.625 3.25-10.375 6.709-15.75 4.166-6.5 10.666-11 18.291-12.625 7.75-1.666 15.709-.166 22.334 4.167 11.291 7.417 15.666 21.25 10.833 34.458-2.5 6.834-6.542 19.917-5.667 30.667 1.792 21.75 15.167 30.458 27.209 31.417 11.666.458 19.833-6.125 21.916-10.917 1.167-2.833.125-4.542-.541-5.292Z"/>
    <path d="M924.083 646.208c-.458-1.583-3.333-12.166-7.333-24.916s-8.083-21.75-8.083-21.75c15.958-23.917 16.25-45.292 14.125-57.375-2.25-15-8.5-27.792-21.125-41-12.584-13.209-38.334-26.75-74.542-36.917-4.125-1.167-17.792-4.917-19-5.292-.083-.791-1-44.75-1.833-63.666-.584-13.667-1.792-34.959-8.375-55.959-7.875-28.416-21.625-53.25-38.75-69.166 47.291-49 76.791-103 76.75-149.334-.125-89.083-109.542-116.041-244.375-60.208-.125.042-28.375 12.042-28.584 12.125-.125-.125-51.625-50.667-52.416-51.333C356.875-112.667-123.75 421.583 29.917 551.333L63.5 579.792c-8.708 22.583-12.125 48.416-9.333 76.208 3.583 35.708 22 69.958 51.875 96.375 28.333 25.125 65.583 41 101.75 40.958 59.791 137.792 196.416 222.334 356.625 227.084 171.833 5.125 316.083-75.542 376.541-220.375 3.959-10.167 20.75-55.959 20.75-96.417 0-40.583-22.958-57.417-37.625-57.417ZM221 754.667a84.279 84.279 0 0 1-15.917 1.125c-51.916-1.375-107.958-48.125-113.541-103.542-6.167-61.25 25.125-108.375 80.541-119.583 6.625-1.334 14.625-2.125 23.25-1.667 31.042 1.708 76.792 25.542 87.25 93.167 9.292 59.916-5.416 120.916-61.583 130.5Zm-57.958-258.625c-34.5 6.708-64.917 26.25-83.5 53.25-11.125-9.25-31.834-27.209-35.459-34.209-29.666-56.375 32.375-165.958 75.75-227.833C227 134.333 394.833 18.542 472.542 39.542 485.167 43.125 527 91.625 527 91.625s-77.667 43.083-149.708 103.167c-97 74.75-170.334 183.375-214.25 301.25ZM707.833 731.75c1.125-.458 1.917-1.75 1.792-3.042a2.847 2.847 0 0 0-3.125-2.541s-81.292 12.041-158.125-16.084c8.375-27.208 30.625-17.375 64.25-14.666 60.625 3.625 114.917-5.25 155.083-16.75C802.5 668.667 848.167 649 883.667 621c11.958 26.292 16.208 55.208 16.208 55.208s9.25-1.666 17 3.125c7.333 4.5 12.667 13.875 9 38.042-7.458 45.208-26.667 81.917-58.958 115.667-19.667 21.166-43.542 39.583-70.834 52.958a299.766 299.766 0 0 1-46.25 19.542c-121.75 39.75-246.375-3.959-286.541-97.834a148.91 148.91 0 0 1-8.042-22.166c-17.125-61.875-2.583-136.084 42.833-182.834v-.041c2.792-2.959 5.667-6.459 5.667-10.875 0-3.709-2.333-7.584-4.375-10.334-15.875-23.041-70.958-62.333-59.917-138.375 7.917-54.625 55.709-93.083 100.25-90.791 3.75.208 7.542.416 11.292.666 19.292 1.125 36.125 3.625 52.042 4.292 26.583 1.167 50.5-2.708 78.833-26.333 9.542-7.959 17.208-14.875 30.167-17.042 1.375-.25 4.75-1.458 11.541-1.125 6.917.375 13.5 2.25 19.417 6.208 22.708 15.125 25.917 51.709 27.083 78.459.667 15.291 2.5 52.25 3.167 62.875 1.458 24.25 7.833 27.708 20.708 31.958 7.25 2.375 14 4.167 23.917 6.958 30.042 8.459 47.875 17 59.125 28 6.708 6.875 9.833 14.167 10.792 21.125 3.541 25.834-20.084 57.792-82.584 86.792-68.333 31.708-151.25 39.75-208.541 33.375-4.375-.5-20-2.25-20.084-2.25-45.833-6.167-71.958 53.042-44.458 93.625 17.708 26.167 66 43.167 114.292 43.167 110.75 0 195.875-47.292 227.541-88.125.959-1.209 1.042-1.375 2.542-3.625 1.542-2.334.292-3.625-1.667-2.334-25.875 17.709-140.791 87.959-263.666 66.834 0 0-14.917-2.459-28.584-7.75-10.833-4.209-33.5-14.625-36.25-37.917 99.042 30.625 161.5 1.625 161.5 1.625Zm-157.125-18.542s.042 0 0 0c.042.042.042.042.042.084 0-.042 0-.084-.042-.084Zm-189.75-426.583c38.084-44.042 85-82.292 127-103.792 1.459-.75 3 .834 2.209 2.25-3.334 6.042-9.75 18.959-11.792 28.792-.333 1.542 1.333 2.667 2.625 1.792 26.125-17.834 71.625-36.917 111.5-39.375 1.708-.125 2.542 2.083 1.167 3.125-6.084 4.666-12.709 11.083-17.542 17.583-.833 1.125-.042 2.708 1.333 2.708 28 .209 67.5 10 93.209 24.417 1.75.958.5 4.333-1.459 3.917-38.916-8.917-102.666-15.709-168.875.458-59.083 14.417-104.208 36.667-137.125 60.625-1.583 1.25-3.583-.917-2.25-2.5Z"/>
  </g>
</svg>