<?xml version="1.0" encoding="UTF-8"?><svg id="a" xmlns="http://www.w3.org/2000/svg" viewBox="0 0 30 30"><path d="M17.69,8.85c-.91,0-1.77.26-2.49.7v-.75h-2.01c-.15,0-.29.15-.29.3v6.42c0,1.38-1.12,2.49-2.49,2.49-.69,0-1.31-.28-1.76-.73l-1.63,1.63c.87.87,2.06,1.4,3.39,1.4.91,0,1.77-.26,2.49-.7v.76h2.03c.15,0,.27-.12.27-.28v-1.65h2.47c2.65,0,4.81-2.16,4.81-4.81s-2.15-4.78-4.79-4.78ZM17.72,16.14s-.05,0-.08,0h-1.78c-.35,0-.64-.26-.64-.58l-.02-1.88s0,0,0-.01c0,0,0,0,0-.01,0-1.38,1.12-2.5,2.49-2.5s2.49,1.1,2.49,2.48-1.1,2.49-2.46,2.5Z" fill="#444"/><rect x="2.87" y="3.94" width="24.2" height="22" fill="none" stroke="#444" stroke-width="1.5"/></svg>