<?xml version="1.0" encoding="UTF-8"?><svg id="a" xmlns="http://www.w3.org/2000/svg" viewBox="0 0 30 30"><rect x="2.9" y="4" width="24.2" height="22" fill="none" stroke="#444" stroke-width="2"/><path d="M17.61,9.53c-.87,0-1.68.24-2.38.67v-.71h-1.91c-.15,0-.28.14-.28.28v6.11c0,1.31-1.06,2.37-2.37,2.37-.66,0-1.25-.27-1.68-.7l-1.55,1.55c.83.83,1.97,1.34,3.23,1.34.87,0,1.68-.24,2.38-.67v.72h1.94c.15,0,.25-.12.25-.26v-1.58h2.36c2.52,0,4.58-2.06,4.58-4.58s-2.04-4.56-4.57-4.56ZM17.64,16.47s-.05,0-.07,0h-1.7c-.34,0-.61-.25-.61-.56l-.02-1.8s0,0,0-.01c0,0,0,0,0-.01,0-1.31,1.06-2.38,2.37-2.38s2.37,1.05,2.37,2.36-1.05,2.37-2.35,2.39Z" fill="#444"/></svg>
