<svg viewBox="0 0 22 18" xmlns="http://www.w3.org/2000/svg" xml:space="preserve" fill-rule="evenodd" clip-rule="evenodd" stroke-linejoin="round" stroke-miterlimit="2">
  <path d="M2.048 8.69c.555-.837 1.673-2.358 3.187-3.66 1.522-1.31 3.343-2.31 5.327-2.31 1.983 0 3.803 1 5.326 2.31 1.514 1.302 2.632 2.823 3.187 3.66a.161.161 0 0 1 0 .182c-.555.837-1.673 2.357-3.187 3.66-1.522 1.31-3.343 2.31-5.326 2.31-1.984 0-3.804-1-5.327-2.31-1.515-1.303-2.633-2.822-3.187-3.66a.161.161 0 0 1 0-.183ZM10.562.7C7.893.7 5.619 2.036 3.918 3.498 2.208 4.968.972 6.657.366 7.568a2.184 2.184 0 0 0 0 2.422c.606.913 1.841 2.602 3.552 4.073 1.7 1.463 3.975 2.799 6.644 2.799 2.668 0 4.942-1.336 6.643-2.799 1.71-1.47 2.946-3.158 3.552-4.072a2.185 2.185 0 0 0 0-2.42c-.606-.914-1.841-2.603-3.552-4.072C15.505 2.036 13.23.7 10.562.7Zm0 10.774a2.707 2.707 0 0 0 2.693-2.693 2.707 2.707 0 0 0-2.693-2.694 2.707 2.707 0 0 0-2.694 2.694 2.707 2.707 0 0 0 2.694 2.693Z" fill="#444"/>
</svg>
